<svg xmlns="http://www.w3.org/2000/svg" version="1.1" viewBox="14.651828368794327 10.781692722371966 610.8510638297872 218.6522911051213" style="max-height: 500px" width="610.8510638297872" height="218.6522911051213">
<path transform="translate(0,0)" fill="#ADADAD" d="M0 0 C210.54 0 421.08 0 638 0 C638 79.2 638 158.4 638 240 C427.46 240 216.92 240 0 240 C0 160.8 0 81.6 0 0 Z"/>
<path transform="translate(148,104)" fill="#0A0A0A" d="M0 0 C2.31 0 4.62 0 7 0 C7.33 1.98 7.66 3.96 8 6 C8.37769531 5.566875 8.75539062 5.13375 9.14453125 4.6875 C12.75456924 1.0351899 15.35800287 -0.46858069 20.5625 -0.625 C26.97327983 -0.23912543 30.54942959 2.23917414 34.75 6.9375 C39.83978442 13.86526213 39.73444611 20.6328924 39 29 C37.38105221 35.70845432 33.76029178 40.25781508 28 44 C23.93486443 45.35504519 20.25054768 45.53675858 16 45 C12.1973971 42.9949912 10.38209159 41.57313738 8 38 C7.67 45.26 7.34 52.52 7 60 C4.69 60 2.38 60 0 60 C0 40.2 0 20.4 0 0 Z"/>
<path transform="translate(546,90)" fill="#040404" d="M0 0 C26 0 26 0 34 4 C39.10714828 9.50000584 39.36725558 13.30895693 39.26171875 20.6640625 C38.81603454 26.34487313 37.49812499 29.85875 33.140625 33.59375 C25.08060008 38.59652409 16.12116493 37.34034198 7 37 C7 43.93 7 50.86 7 58 C4.69 58 2.38 58 0 58 C0 38.86 0 19.72 0 0 Z"/>
<path transform="translate(127.375,105.0625)" fill="#060606" d="M0 0 C4.50542871 3.32543548 8.62613215 7.62858033 10.625 12.9375 C11.38663206 21.12061658 12.14563406 30.24838818 6.625 36.9375 C2.17075957 41.54656697 -2.18096017 44.21850189 -8.625 44.375 C-14.40233183 44.26701249 -18.03119259 42.68570262 -22.375 38.9375 C-27.98538031 33.03183651 -28.78387402 27.58034166 -28.73852539 19.60766602 C-28.55839972 13.0550943 -27.21647693 8.81061921 -22.62109375 4.1640625 C-15.87649255 -1.83426759 -8.75918205 -2.75752028 0 0 Z"/>
<path transform="translate(451.3125,105.0625)" fill="#080808" d="M0 0 C4.00521387 2.88747977 7.46370991 6.48991981 9.6875 10.9375 C9.6875 15.2275 9.6875 19.5175 9.6875 23.9375 C-0.5425 23.9375 -10.7725 23.9375 -21.3125 23.9375 C-19.26111814 32.43352929 -19.26111814 32.43352929 -15.625 35.5 C-11.3212525 37.36766401 -8.98506633 37.45667404 -4.3125 36.9375 C-0.72697119 35.30062815 0.48065055 34.24777417 2.6875 30.9375 C4.6675 31.5975 6.6475 32.2575 8.6875 32.9375 C8.21275937 37.2101657 5.84415032 39.211302 2.6875 41.9375 C-3.12593773 44.73260863 -9.41677443 45.0346099 -15.62890625 43.28515625 C-22.00741214 40.46505782 -25.10993326 35.97254938 -27.625 29.625 C-29.22538629 21.04110991 -28.85159971 13.60382829 -24.3125 5.9375 C-17.73333344 -1.43415708 -9.40877313 -3.01790836 0 0 Z"/>
<path transform="translate(329.328125,104.6484375)" fill="#080808" d="M0 0 C5.0410931 2.25117516 8.0616753 5.52325319 10.671875 10.3515625 C11.671875 13.3515625 11.671875 13.3515625 11.671875 24.3515625 C1.441875 24.3515625 -8.788125 24.3515625 -19.328125 24.3515625 C-17.96816161 29.89234126 -17.96816161 29.89234126 -16.328125 35.3515625 C-12.24717372 37.70120112 -7.92796346 37.94683571 -3.328125 37.3515625 C0.34502033 35.89616529 3.09188432 34.36155162 5.671875 31.3515625 C7.321875 32.0115625 8.971875 32.6715625 10.671875 33.3515625 C9.31540098 37.79093201 7.50378561 39.7672507 3.671875 42.3515625 C-1.65630714 44.8285435 -6.53484044 45.1467192 -12.328125 44.3515625 C-18.27051842 41.96275983 -21.93325422 38.00047471 -25.40234375 32.71484375 C-27.84176305 26.48763415 -27.54261654 16.97939988 -25.41796875 10.6328125 C-19.68584789 1.04855897 -10.93822297 -3.04655203 0 0 Z"/>
<path transform="translate(0,0)" fill="#000000" d="M0 0 C10.89 0 21.78 0 33 0 C30.75965553 1.12017223 28.50985602 2.2232955 26.23046875 3.26171875 C15.18059536 8.43913054 8.73634062 14.59172446 4 26 C1.56004623 34.41512102 1.71024265 42.76808789 1.7253418 51.45263672 C1.72098874 53.11097441 1.71580362 54.76931009 1.70985413 56.42764282 C1.69651663 60.91119939 1.69587959 65.39467139 1.69841743 69.87824392 C1.69949072 73.63051116 1.69459461 77.38276154 1.689812 81.13502514 C1.67873494 89.9922107 1.67826925 98.84935384 1.68432617 107.70654297 C1.69036484 116.82300166 1.67805352 125.93930597 1.6567561 135.05573833 C1.63910392 142.90232124 1.63314445 150.74885517 1.63639385 158.5954572 C1.6382011 163.27326416 1.63562641 167.95096099 1.62167931 172.62874985 C1.60904658 177.02998441 1.61109622 181.43097939 1.62409019 185.83221054 C1.62644373 187.44015588 1.62376555 189.04811836 1.61546707 190.65604401 C1.54775992 204.80384166 3.12954812 217.41809485 13.07421875 228.26171875 C17.95002417 232.86522788 22.79206445 235.60228876 29 238 C30.32 238.66 31.64 239.32 33 240 C22.11 240 11.22 240 0 240 C0 160.8 0 81.6 0 0 Z"/>
<path transform="translate(193,104)" fill="#070707" d="M0 0 C2.31 0 4.62 0 7 0 C8.57262273 4.35779234 10.13902779 8.71774997 11.69970703 13.07983398 C12.23152998 14.56351941 12.76504836 16.04659825 13.30029297 17.52905273 C14.06924592 19.65972292 14.83207986 21.7924985 15.59375 23.92578125 C15.83436157 24.58838455 16.07497314 25.25098785 16.32287598 25.93367004 C17.32990715 28.77063085 18 30.96326217 18 34 C18.66 34 19.32 34 20 34 C20.23460937 32.78441406 20.46921875 31.56882813 20.7109375 30.31640625 C22.11611101 23.99312547 24.38456475 18.00417857 26.625 11.9375 C27.04523438 10.78572266 27.46546875 9.63394531 27.8984375 8.44726562 C28.92728295 5.62963206 29.96123455 2.81398816 31 0 C33.31 0 35.62 0 38 0 C37.38966101 4.82316663 35.95449583 9.03044584 34.125 13.5 C31.70380967 19.49594564 29.44618069 25.5282349 27.3359375 31.640625 C26.6261887 33.66912713 25.91481313 35.69705248 25.20306396 37.72485352 C24.73797564 39.06452108 24.28036256 40.40680949 23.83062744 41.75170898 C18.87964399 56.53166848 18.87964399 56.53166848 12 60 C9.12890625 60.5859375 9.12890625 60.5859375 6.5625 60.375 C5.69753906 60.32085937 4.83257812 60.26671875 3.94140625 60.2109375 C3.30074219 60.14132813 2.66007813 60.07171875 2 60 C2.5625 57.125 2.5625 57.125 4 54 C6.31847874 53.2833793 8.65319703 52.61757973 11 52 C13.2274301 49.41330698 13.92492536 47.76361432 14.2578125 44.37768555 C13.92018552 39.95432448 12.53063199 36.32118145 10.9375 32.20703125 C10.62675537 31.37918625 10.31601074 30.55134125 9.99584961 29.69841003 C9.00646607 27.066176 8.00415177 24.4391319 7 21.8125 C5.99758701 19.17455844 4.99805012 16.53561623 4.00415039 13.89445496 C3.38630184 12.25417077 2.76326008 10.61583139 2.13452148 8.97969055 C0 3.33519574 0 3.33519574 0 0 Z"/>
<path transform="translate(122,110)" fill="#AAAAAA" d="M0 0 C4.38364245 2.04569981 7.22681765 4.25016625 9.1875 8.6875 C10.88027414 15.58880995 10.51008497 21.7675263 7 28 C2.84531384 31.95201854 -0.09404345 33.42153036 -5.8984375 33.34765625 C-9.72159464 32.71520089 -11.37812065 30.80915644 -14 28 C-17.03447662 22.0349672 -16.62763127 15.52124202 -16 9 C-15.01020306 6.20407875 -14.12608563 5.18514357 -12 3 C-11.4225 2.38125 -10.845 1.7625 -10.25 1.125 C-6.88249129 -0.55875435 -3.64688157 -0.54485282 0 0 Z"/>
<path transform="translate(171,110)" fill="#ABABAB" d="M0 0 C4.60250108 1.88284135 6.91224144 4.51518531 9 9 C9.82697882 16.13958382 9.82983447 22.79302689 6 29 C3.07245891 32.26211721 1.48025101 32.92254016 -2.875 33.625 C-7.12476114 33.40768267 -9.46463401 31.58182939 -12.5546875 28.80078125 C-16.23826837 24.2112386 -16.42743943 19.46304414 -16.3203125 13.79296875 C-15.72877079 8.63501364 -13.62980656 4.86263607 -10.25 1 C-6.84770603 -0.51213065 -3.61863125 -0.52004281 0 0 Z"/>
<path transform="translate(286.9375,105.25)" fill="#070707" d="M0 0 C1.0209375 0.86625 1.0209375 0.86625 2.0625 1.75 C2.84625 2.389375 3.63 3.02875 4.4375 3.6875 C6.0625 5.75 6.0625 5.75 5.8125 8 C5.565 8.5775 5.3175 9.155 5.0625 9.75 C2.8125 10 2.8125 10 0.0625 9.75 C-0.494375 9.09 -1.05125 8.43 -1.625 7.75 C-4.86579301 4.94715199 -7.43773029 5.31015072 -11.59765625 5.31640625 C-13.95990838 5.60875049 -13.95990838 5.60875049 -15.80859375 6.90234375 C-17.25102042 8.8463517 -17.25102042 8.8463517 -16.625 11.9375 C-16.2846875 13.3296875 -16.2846875 13.3296875 -15.9375 14.75 C-14.69613281 15.12511719 -13.45476562 15.50023438 -12.17578125 15.88671875 C-10.53359858 16.4028333 -8.89168539 16.91980584 -7.25 17.4375 C-6.43337891 17.68177734 -5.61675781 17.92605469 -4.77539062 18.17773438 C0.28864549 19.79740584 3.74486426 21.36859329 7.0625 25.75 C8.11936954 29.81060403 7.45197196 33.65461012 6.0625 37.5625 C2.57133731 41.38095919 -1.29831687 43.37886487 -6.4375 44.1015625 C-13.14575909 44.3265346 -17.97159881 43.09150094 -23.3125 38.875 C-25.1505076 36.4714516 -25.60629228 34.73086944 -25.9375 31.75 C-22.9675 31.255 -22.9675 31.255 -19.9375 30.75 C-19.31875 31.554375 -18.7 32.35875 -18.0625 33.1875 C-15.91464915 35.77755544 -15.19134848 36.62413104 -11.9140625 36.953125 C-8.37043868 37.02376202 -5.65263494 37.06396168 -2.375 35.625 C-0.35006682 32.98378281 -0.65001447 30.98421217 -0.9375 27.75 C-5.12464896 25.79599715 -8.98151305 24.49382022 -13.5 23.5 C-18.2837595 22.23487352 -21.05782404 20.67485643 -23.96484375 16.640625 C-25.65888619 13.34778749 -25.71008629 11.3554027 -24.9375 7.75 C-19.50423623 -1.09026085 -9.6947996 -4.12544664 0 0 Z"/>
<path transform="translate(82.3125,105.0625)" fill="#070707" d="M0 0 C3.46169822 2.4956429 6.37504646 5.32941646 8.6875 8.9375 C8.6875 9.9275 8.6875 10.9175 8.6875 11.9375 C5.4375 12.25 5.4375 12.25 1.6875 11.9375 C-0.625 9.5 -0.625 9.5 -2.3125 6.9375 C-5.77500243 5.20624879 -9.52658229 5.45934776 -13.3125 5.9375 C-16.91114068 8.08137105 -18.79941924 10.07220636 -20.3125 13.9375 C-20.94683951 19.9932295 -21.52359148 26.67334146 -18.5625 32.1875 C-15.97929472 35.45865802 -15.97929472 35.45865802 -12.3125 36.9375 C-7.33955971 37.38958548 -4.25920031 37.09486025 -0.3125 33.9375 C1.01543606 31.87049345 1.01543606 31.87049345 1.6875 29.9375 C3.9975 29.9375 6.3075 29.9375 8.6875 29.9375 C8.36565034 35.24801932 5.38861483 38.41781237 1.6875 41.9375 C-2.75994066 44.77892042 -8.20383287 44.55272058 -13.3125 43.9375 C-18.82510615 42.33922704 -22.16161887 39.55298869 -25.3046875 34.81640625 C-29.05378936 27.82680161 -29.46290754 20.86289757 -27.66015625 13.14453125 C-25.58230463 7.24985348 -22.63036819 3.28121759 -17.3125 -0.0625 C-11.70864002 -1.93045333 -5.60508879 -1.79785867 0 0 Z"/>
<path transform="translate(553,96)" fill="#A8A8A8" d="M0 0 C2.866875 -0.061875 5.73375 -0.12375 8.6875 -0.1875 C10.02880981 -0.22846802 10.02880981 -0.22846802 11.3972168 -0.27026367 C16.08935444 -0.3192004 19.22122733 -0.09960512 23 3 C26.11266915 7.66900373 25.59836278 12.53347583 25 18 C22.72189018 22.21872189 20.49269721 23.60824054 16 25 C13.18156537 25.13802324 10.49667223 25.18976313 7.6875 25.125 C3.8821875 25.063125 3.8821875 25.063125 0 25 C0 16.75 0 8.5 0 0 Z"/>
<path transform="translate(379,104)" fill="#070707" d="M0 0 C2.31 0 4.62 0 7 0 C10.00444673 7.29275865 12.68790857 14.66646717 15.25 22.125 C15.61351562 23.176875 15.97703125 24.22875 16.3515625 25.3125 C17.23653541 27.8742637 18.11930766 30.43676225 19 33 C20.78409215 30.32386177 21.62670654 28.43711983 22.5859375 25.4296875 C22.87726563 24.5325 23.16859375 23.6353125 23.46875 22.7109375 C24.06539709 20.84384358 24.66175875 18.97665842 25.2578125 17.109375 C27.16881083 11.22551173 29.36254434 5.59705645 32 0 C34.31 0 36.62 0 39 0 C36.45980667 9.45688208 32.84064446 18.50595744 29.3125 27.625 C28.69953356 29.21731853 28.08690065 30.80976548 27.47460938 32.40234375 C25.98691368 36.26972049 24.4947164 40.1353316 23 44 C20.69 44 18.38 44 16 44 C14.01349625 38.91579196 12.03386086 33.82897888 10.06152344 28.73925781 C9.34161209 26.88152891 8.62088239 25.02411697 7.89941406 23.16699219 C6.80359603 20.34215255 5.71363312 17.51511528 4.625 14.6875 C4.27953125 13.79909424 3.9340625 12.91068848 3.578125 11.99536133 C3.25585938 11.15513428 2.93359375 10.31490723 2.6015625 9.44921875 C2.31619629 8.71018311 2.03083008 7.97114746 1.73681641 7.2097168 C0.94250037 4.82755828 0.44442914 2.46932209 0 0 Z"/>
<path transform="translate(525,90)" fill="#000000" d="M0 0 C2.31 0 4.62 0 7 0 C7 19.14 7 38.28 7 58 C4.69 58 2.38 58 0 58 C0 38.86 0 19.72 0 0 Z"/>
<path transform="translate(351,104)" fill="#070707" d="M0 0 C2.31 0 4.62 0 7 0 C7.33 1.32 7.66 2.64 8 4 C8.639375 3.34 9.27875 2.68 9.9375 2 C14.04464253 -0.68221553 17.23379829 -0.37381974 22 0 C22 1.98 22 3.96 22 6 C21.32453125 6.08636719 20.6490625 6.17273438 19.953125 6.26171875 C19.06109375 6.40222656 18.1690625 6.54273437 17.25 6.6875 C16.36828125 6.81511719 15.4865625 6.94273438 14.578125 7.07421875 C11.07476155 8.33224472 10.01680756 9.88769447 8 13 C7.36207191 16.47201124 7.36207191 16.47201124 7.390625 20.26953125 C7.37408875 20.95053391 7.35755249 21.63153656 7.34051514 22.33317566 C7.29220697 24.49304371 7.2707049 26.65220875 7.25 28.8125 C7.22182556 30.28323817 7.19189606 31.75394383 7.16015625 33.22460938 C7.08645604 36.81625414 7.03677515 40.40776571 7 44 C4.69 44 2.38 44 0 44 C0 29.48 0 14.96 0 0 Z"/>
<path transform="translate(472,104)" fill="#080808" d="M0 0 C1.98 0 3.96 0 6 0 C6.33 1.65 6.66 3.3 7 5 C7.825 4.175 8.65 3.35 9.5 2.5 C12.16275632 0.2385682 13.88440321 -0.34355513 17.375 -0.3125 C19.169375 -0.1578125 19.169375 -0.1578125 21 0 C21 1.98 21 3.96 21 6 C20.39671875 6.09796875 19.7934375 6.1959375 19.171875 6.296875 C18.37265625 6.44640625 17.5734375 6.5959375 16.75 6.75 C15.96109375 6.88921875 15.1721875 7.0284375 14.359375 7.171875 C11.2696643 8.25634299 10.02721245 9.41572298 8 12 C7.35726046 15.47724894 7.35726046 15.47724894 7.390625 19.390625 C7.37408875 20.09523865 7.35755249 20.79985229 7.34051514 21.52581787 C7.29208861 23.76730102 7.27067813 26.00810613 7.25 28.25 C7.22183552 29.77347151 7.19190741 31.29691152 7.16015625 32.8203125 C7.08633407 36.54672756 7.03672531 40.2730138 7 44 C4.69 44 2.38 44 0 44 C0 29.48 0 14.96 0 0 Z"/>
<path transform="translate(637,209)" fill="#000000" d="M0 0 C0.33 0 0.66 0 1 0 C1 10.23 1 20.46 1 31 C-9.23 31 -19.46 31 -30 31 C-27.90091082 29.95045541 -25.79818896 28.90670042 -23.66796875 27.921875 C-13.59588015 23.16340794 -6.22404096 16.99950012 -1.9609375 6.421875 C-1.24456917 4.29285511 -0.58442927 2.1685402 0 0 Z"/>
<path transform="translate(607,0)" fill="#000000" d="M0 0 C10.23 0 20.46 0 31 0 C31 10.23 31 20.46 31 31 C29.95045541 28.90091082 28.90670042 26.79818896 27.921875 24.66796875 C23.16340794 14.59588015 16.99950012 7.22404096 6.421875 2.9609375 C4.29285511 2.24456917 2.1685402 1.58442927 0 1 C0 0.67 0 0.34 0 0 Z"/>
<path transform="translate(447,110)" fill="#A3A3A3" d="M0 0 C4.18917491 1.73031138 6.13730945 3.88247352 8 8 C8 9.65 8 11.3 8 13 C-0.25 13 -8.5 13 -17 13 C-15.90079845 6.40479072 -15.28337 5.49231488 -11 1 C-7.54820431 -0.72589785 -3.78133961 -0.36043965 0 0 Z"/>
<path transform="translate(328.8125,111.1875)" fill="#A4A4A4" d="M0 0 C2.53010434 2.09637217 3.83303038 3.81840926 5.1875 6.8125 C5.1875 8.4625 5.1875 10.1125 5.1875 11.8125 C-3.0625 11.8125 -11.3125 11.8125 -19.8125 11.8125 C-18.76114601 6.55573004 -17.36774359 2.82019139 -13.0625 -0.5625 C-8.41962268 -1.85218814 -4.38633678 -1.85200886 0 0 Z"/>
</svg>