<?xml version="1.0" standalone="no"?>
<!DOCTYPE svg PUBLIC "-//W3C//DTD SVG 20010904//EN"
 "http://www.w3.org/TR/2001/REC-SVG-20010904/DTD/svg10.dtd">
<svg version="1.0" xmlns="http://www.w3.org/2000/svg"
 width="638.000000pt" height="240.000000pt" viewBox="0 0 638.000000 240.000000"
 preserveAspectRatio="xMidYMid meet">

<g transform="translate(0.000000,240.000000) scale(0.100000,-0.100000)"
fill="#000000" stroke="none">
<path d="M5250 1210 l0 -290 35 0 35 0 0 290 0 290 -35 0 -35 0 0 -290z"/>
<path d="M5460 1210 l0 -290 35 0 35 0 0 104 0 104 103 4 c80 3 110 8 137 24
96 56 117 197 43 285 -42 50 -77 59 -223 59 l-130 0 0 -290z m254 216 c48 -20
66 -51 66 -113 0 -40 -5 -58 -24 -80 -23 -27 -29 -28 -125 -31 l-101 -4 0 121
0 121 75 0 c42 0 90 -6 109 -14z"/>
<path d="M3660 1359 c-19 -4 -45 -19 -57 -34 l-23 -26 0 30 c0 29 -3 31 -35
31 l-35 0 0 -220 0 -220 35 0 35 0 0 155 0 155 28 31 c24 27 36 32 75 33 46 1
47 2 47 32 0 37 -17 44 -70 33z"/>
<path d="M4866 1360 c-16 -5 -42 -21 -57 -36 l-29 -28 0 32 c0 29 -3 32 -30
32 l-30 0 0 -220 0 -220 35 0 35 0 0 159 c0 156 0 159 25 184 27 26 81 42 109
31 13 -5 16 1 16 30 0 20 -4 36 -9 36 -5 0 -15 2 -23 4 -7 2 -26 0 -42 -4z"/>
<path d="M655 1346 c-102 -46 -147 -203 -91 -321 27 -58 47 -78 99 -100 97
-40 221 9 242 98 7 25 5 27 -27 27 -28 0 -37 -5 -46 -26 -15 -32 -74 -57 -116
-49 -90 19 -134 147 -87 252 38 83 138 98 196 29 34 -40 85 -51 85 -18 0 29
-47 88 -83 106 -42 19 -130 20 -172 2z"/>
<path d="M1083 1335 c-113 -68 -128 -282 -27 -377 37 -34 74 -48 130 -48 119
0 196 90 196 230 0 136 -76 220 -198 220 -45 0 -69 -6 -101 -25z m182 -65 c34
-32 48 -82 43 -156 -5 -75 -27 -112 -82 -133 -50 -19 -107 -2 -138 42 -19 27
-23 44 -23 114 0 88 16 124 66 151 35 19 105 9 134 -18z"/>
<path d="M1482 1058 l3 -303 33 -3 32 -3 0 117 0 118 35 -34 c28 -27 44 -34
87 -37 118 -10 198 80 198 221 0 130 -61 214 -161 224 -66 6 -96 -3 -130 -41
l-29 -31 0 37 c0 36 -1 37 -35 37 l-35 0 2 -302z m270 216 c50 -45 63 -154 28
-232 -34 -76 -127 -93 -183 -34 -66 69 -54 235 21 277 35 20 106 14 134 -11z"/>
<path d="M1955 1268 c18 -51 54 -149 79 -218 50 -133 51 -158 15 -205 -15 -18
-30 -25 -55 -25 -23 0 -34 -5 -34 -14 0 -8 -2 -21 -6 -29 -3 -10 4 -16 26 -20
43 -9 105 18 129 57 19 31 201 516 201 536 0 5 -15 10 -34 10 -34 0 -35 -1
-64 -82 -16 -46 -41 -120 -56 -165 -15 -46 -31 -85 -35 -87 -4 -3 -34 71 -66
164 l-57 170 -39 0 -38 0 34 -92z"/>
<path d="M2691 1343 c-39 -19 -71 -66 -71 -105 0 -66 43 -106 140 -128 84 -19
110 -36 110 -69 0 -37 -27 -60 -81 -66 -51 -7 -89 9 -104 43 -8 19 -15 22 -39
18 -41 -8 -42 -11 -23 -52 49 -102 259 -96 310 8 38 78 0 138 -106 169 -113
33 -127 39 -134 67 -9 37 34 72 88 72 32 0 47 -7 71 -30 34 -34 29 -33 63 -20
l26 10 -18 31 c-28 49 -69 69 -138 69 -35 0 -74 -7 -94 -17z"/>
<path d="M3127 1339 c-141 -74 -136 -339 7 -409 80 -38 195 -17 244 45 30 38
28 51 -9 59 -25 5 -35 1 -55 -23 -62 -75 -214 -25 -214 70 l0 29 155 0 155 0
0 43 c0 91 -41 166 -107 193 -47 20 -131 17 -176 -7z m154 -55 c27 -14 59 -65
59 -94 0 -6 -44 -10 -120 -10 -132 0 -137 3 -104 59 34 58 105 77 165 45z"/>
<path d="M3790 1353 c0 -4 35 -102 78 -218 l78 -210 38 0 38 0 79 214 c43 118
79 216 79 218 0 1 -17 3 -37 3 l-38 0 -61 -176 -60 -176 -61 173 -60 174 -36
3 c-21 2 -37 0 -37 -5z"/>
<path d="M4344 1346 c-99 -43 -144 -206 -90 -321 13 -27 32 -58 42 -67 81 -71
244 -59 293 23 23 37 21 44 -15 53 -20 5 -30 1 -45 -18 -11 -14 -38 -31 -59
-37 -33 -10 -47 -9 -86 6 -37 14 -50 25 -65 59 -10 22 -19 47 -19 53 0 9 41
13 158 15 l157 3 -2 58 c-3 75 -38 139 -93 167 -46 23 -129 26 -176 6z m168
-85 c15 -17 28 -42 28 -56 l0 -25 -120 0 c-66 0 -120 2 -120 5 0 3 6 21 14 40
33 79 142 99 198 36z"/>
</g>
</svg>
